<svg width="200" height="50" viewBox="0 0 200 50" fill="none" xmlns="http://www.w3.org/2000/svg">
  <path d="M16.5 10C22.299 10 27 14.701 27 20.5C27 26.299 22.299 31 16.5 31C10.701 31 6 26.299 6 20.5C6 14.701 10.701 10 16.5 10Z" fill="#4CAF50"/>
  <path d="M41.5 10C47.299 10 52 14.701 52 20.5C52 26.299 47.299 31 41.5 31C35.701 31 31 26.299 31 20.5C31 14.701 35.701 10 41.5 10Z" fill="#2196F3"/>
  <path d="M29 29C34.799 29 39.5 33.701 39.5 39.5C39.5 45.299 34.799 50 29 50C23.201 50 18.5 45.299 18.5 39.5C18.5 33.701 23.201 29 29 29Z" fill="#FFC107"/>
  <text x="60" y="32" font-family="Arial" font-weight="bold" font-size="24" fill="#333333">Uyir Mei</text>
</svg> 